<mxfile host="Electron" modified="2023-12-26T16:57:33.131Z" agent="Mozilla/5.0 (Windows NT 10.0; Win64; x64) AppleWebKit/537.36 (KHTML, like Gecko) draw.io/22.1.2 Chrome/114.0.5735.289 Electron/25.9.4 Safari/537.36" etag="Z68GrwuP22PBoq4vwWrc" version="22.1.2" type="device">
  <diagram name="Page-1" id="X1gWgJeyOf1Bb8kM3bmI">
    <mxGraphModel dx="1022" dy="592" grid="1" gridSize="10" guides="1" tooltips="1" connect="1" arrows="1" fold="1" page="1" pageScale="1" pageWidth="850" pageHeight="1100" math="0" shadow="0">
      <root>
        <mxCell id="0" />
        <mxCell id="1" parent="0" />
        <mxCell id="ReZrS3ay8omHcq3P7Lu7-2" value="" style="rounded=0;whiteSpace=wrap;html=1;" vertex="1" parent="1">
          <mxGeometry x="96" y="83" width="560" height="30" as="geometry" />
        </mxCell>
        <mxCell id="ReZrS3ay8omHcq3P7Lu7-3" value="" style="rounded=0;whiteSpace=wrap;html=1;" vertex="1" parent="1">
          <mxGeometry x="76" y="143" width="390" height="30" as="geometry" />
        </mxCell>
        <mxCell id="ReZrS3ay8omHcq3P7Lu7-4" value="" style="ellipse;whiteSpace=wrap;html=1;aspect=fixed;" vertex="1" parent="1">
          <mxGeometry x="306" y="53" width="30" height="30" as="geometry" />
        </mxCell>
        <mxCell id="ReZrS3ay8omHcq3P7Lu7-8" value="" style="shape=link;html=1;rounded=0;strokeWidth=3;" edge="1" parent="1">
          <mxGeometry width="100" relative="1" as="geometry">
            <mxPoint x="656" y="28" as="sourcePoint" />
            <mxPoint x="656" y="208" as="targetPoint" />
          </mxGeometry>
        </mxCell>
        <mxCell id="ReZrS3ay8omHcq3P7Lu7-9" value="" style="shape=link;html=1;rounded=0;fillColor=#60a917;strokeColor=#000000;strokeWidth=3;" edge="1" parent="1">
          <mxGeometry width="100" relative="1" as="geometry">
            <mxPoint x="96" y="23" as="sourcePoint" />
            <mxPoint x="96" y="123" as="targetPoint" />
          </mxGeometry>
        </mxCell>
        <mxCell id="ReZrS3ay8omHcq3P7Lu7-10" value="" style="ellipse;whiteSpace=wrap;html=1;aspect=fixed;fillColor=#ffe6cc;strokeColor=#d79b00;" vertex="1" parent="1">
          <mxGeometry x="596" y="33" width="50" height="50" as="geometry" />
        </mxCell>
        <mxCell id="ReZrS3ay8omHcq3P7Lu7-16" value="" style="ellipse;whiteSpace=wrap;html=1;aspect=fixed;fillColor=#ffe6cc;strokeColor=#d79b00;" vertex="1" parent="1">
          <mxGeometry x="126" y="183" width="50" height="50" as="geometry" />
        </mxCell>
        <mxCell id="ReZrS3ay8omHcq3P7Lu7-17" value="" style="ellipse;whiteSpace=wrap;html=1;aspect=fixed;fillColor=#ffe6cc;strokeColor=#d79b00;" vertex="1" parent="1">
          <mxGeometry x="66" y="183" width="50" height="50" as="geometry" />
        </mxCell>
        <mxCell id="ReZrS3ay8omHcq3P7Lu7-18" value="" style="ellipse;whiteSpace=wrap;html=1;aspect=fixed;" vertex="1" parent="1">
          <mxGeometry x="416" y="53" width="30" height="30" as="geometry" />
        </mxCell>
        <mxCell id="ReZrS3ay8omHcq3P7Lu7-19" value="" style="ellipse;whiteSpace=wrap;html=1;aspect=fixed;" vertex="1" parent="1">
          <mxGeometry x="306" y="113" width="30" height="30" as="geometry" />
        </mxCell>
        <mxCell id="ReZrS3ay8omHcq3P7Lu7-20" value="" style="ellipse;whiteSpace=wrap;html=1;aspect=fixed;" vertex="1" parent="1">
          <mxGeometry x="416" y="113" width="30" height="30" as="geometry" />
        </mxCell>
        <mxCell id="ReZrS3ay8omHcq3P7Lu7-21" value="" style="rounded=0;whiteSpace=wrap;html=1;" vertex="1" parent="1">
          <mxGeometry x="316" y="63" width="10" height="90" as="geometry" />
        </mxCell>
        <mxCell id="ReZrS3ay8omHcq3P7Lu7-22" value="" style="rounded=0;whiteSpace=wrap;html=1;" vertex="1" parent="1">
          <mxGeometry x="426" y="63" width="10" height="90" as="geometry" />
        </mxCell>
        <mxCell id="ReZrS3ay8omHcq3P7Lu7-25" value="" style="rounded=0;whiteSpace=wrap;html=1;" vertex="1" parent="1">
          <mxGeometry x="620" y="53" width="34" height="10" as="geometry" />
        </mxCell>
        <mxCell id="ReZrS3ay8omHcq3P7Lu7-26" value="" style="ellipse;whiteSpace=wrap;html=1;aspect=fixed;fillColor=#ffe6cc;strokeColor=#d79b00;" vertex="1" parent="1">
          <mxGeometry x="106" y="23" width="50" height="50" as="geometry" />
        </mxCell>
        <mxCell id="ReZrS3ay8omHcq3P7Lu7-28" value="" style="rounded=0;whiteSpace=wrap;html=1;" vertex="1" parent="1">
          <mxGeometry x="85" y="163" width="10" height="50" as="geometry" />
        </mxCell>
        <mxCell id="ReZrS3ay8omHcq3P7Lu7-29" value="" style="rounded=0;whiteSpace=wrap;html=1;" vertex="1" parent="1">
          <mxGeometry x="146" y="163" width="10" height="50" as="geometry" />
        </mxCell>
        <mxCell id="ReZrS3ay8omHcq3P7Lu7-30" value="" style="ellipse;whiteSpace=wrap;html=1;aspect=fixed;fillColor=#ffe6cc;strokeColor=#d79b00;" vertex="1" parent="1">
          <mxGeometry x="95" y="333" width="50" height="50" as="geometry" />
        </mxCell>
        <mxCell id="ReZrS3ay8omHcq3P7Lu7-31" value="" style="curved=1;endArrow=oval;html=1;rounded=0;strokeWidth=4;endFill=1;" edge="1" parent="1">
          <mxGeometry width="50" height="50" relative="1" as="geometry">
            <mxPoint x="90" y="388" as="sourcePoint" />
            <mxPoint x="120" y="358" as="targetPoint" />
            <Array as="points">
              <mxPoint x="120" y="438" />
              <mxPoint x="100" y="358" />
            </Array>
          </mxGeometry>
        </mxCell>
        <mxCell id="ReZrS3ay8omHcq3P7Lu7-33" value="" style="curved=1;endArrow=oval;html=1;rounded=0;endFill=1;strokeWidth=4;dashed=1;dashPattern=1 1;entryX=1;entryY=0.5;entryDx=0;entryDy=0;fillColor=#dae8fc;strokeColor=#6c8ebf;" edge="1" parent="1" target="ReZrS3ay8omHcq3P7Lu7-21">
          <mxGeometry width="50" height="50" relative="1" as="geometry">
            <mxPoint x="370" y="230" as="sourcePoint" />
            <mxPoint x="426" y="213" as="targetPoint" />
            <Array as="points">
              <mxPoint x="376" y="213" />
            </Array>
          </mxGeometry>
        </mxCell>
        <mxCell id="ReZrS3ay8omHcq3P7Lu7-34" value="" style="curved=1;endArrow=oval;html=1;rounded=0;endFill=1;strokeWidth=4;dashed=1;dashPattern=1 1;entryX=1;entryY=0.25;entryDx=0;entryDy=0;fillColor=#dae8fc;strokeColor=#6c8ebf;" edge="1" parent="1" target="ReZrS3ay8omHcq3P7Lu7-21">
          <mxGeometry width="50" height="50" relative="1" as="geometry">
            <mxPoint x="350" y="240" as="sourcePoint" />
            <mxPoint x="276" y="104.20000000000005" as="targetPoint" />
            <Array as="points">
              <mxPoint x="116" y="83" />
              <mxPoint x="106" y="33" />
              <mxPoint x="116" y="23" />
              <mxPoint x="156" y="13" />
            </Array>
          </mxGeometry>
        </mxCell>
        <mxCell id="ReZrS3ay8omHcq3P7Lu7-27" value="" style="rounded=0;whiteSpace=wrap;html=1;" vertex="1" parent="1">
          <mxGeometry x="95" y="43" width="50" height="10" as="geometry" />
        </mxCell>
        <mxCell id="ReZrS3ay8omHcq3P7Lu7-35" value="" style="curved=1;endArrow=oval;html=1;rounded=0;endFill=1;strokeWidth=4;dashed=1;dashPattern=1 1;entryX=0.5;entryY=0;entryDx=0;entryDy=0;fillColor=#f8cecc;strokeColor=#b85450;" edge="1" parent="1" target="ReZrS3ay8omHcq3P7Lu7-10">
          <mxGeometry width="50" height="50" relative="1" as="geometry">
            <mxPoint x="36" y="393" as="sourcePoint" />
            <mxPoint x="576" y="356" as="targetPoint" />
            <Array as="points">
              <mxPoint x="56" y="203" />
              <mxPoint x="86" y="183" />
              <mxPoint x="126" y="183" />
              <mxPoint x="76" y="393" />
              <mxPoint x="166" y="373" />
              <mxPoint x="116" y="223" />
              <mxPoint x="136" y="183" />
              <mxPoint x="166" y="183" />
              <mxPoint x="306" y="163" />
              <mxPoint x="426" y="123" />
              <mxPoint x="526" y="103" />
            </Array>
          </mxGeometry>
        </mxCell>
        <mxCell id="ReZrS3ay8omHcq3P7Lu7-37" value="" style="curved=1;endArrow=oval;html=1;rounded=0;endFill=1;strokeWidth=4;dashed=1;dashPattern=1 1;fillColor=#dae8fc;strokeColor=#6c8ebf;" edge="1" parent="1">
          <mxGeometry width="50" height="50" relative="1" as="geometry">
            <mxPoint x="672" y="190" as="sourcePoint" />
            <mxPoint x="732" y="180" as="targetPoint" />
            <Array as="points">
              <mxPoint x="692" y="200" />
              <mxPoint x="712" y="170" />
            </Array>
          </mxGeometry>
        </mxCell>
        <mxCell id="ReZrS3ay8omHcq3P7Lu7-38" value="" style="curved=1;endArrow=oval;html=1;rounded=0;endFill=1;strokeWidth=4;dashed=1;dashPattern=1 1;fillColor=#e1d5e7;strokeColor=#9673a6;" edge="1" parent="1">
          <mxGeometry width="50" height="50" relative="1" as="geometry">
            <mxPoint x="677" y="240" as="sourcePoint" />
            <mxPoint x="737" y="230" as="targetPoint" />
            <Array as="points">
              <mxPoint x="697" y="250" />
              <mxPoint x="717" y="220" />
            </Array>
          </mxGeometry>
        </mxCell>
        <mxCell id="ReZrS3ay8omHcq3P7Lu7-39" value="" style="rounded=0;whiteSpace=wrap;html=1;" vertex="1" parent="1">
          <mxGeometry x="680" y="120" width="40" height="30" as="geometry" />
        </mxCell>
        <mxCell id="ReZrS3ay8omHcq3P7Lu7-40" value="" style="ellipse;whiteSpace=wrap;html=1;aspect=fixed;fillColor=#ffe6cc;strokeColor=#d79b00;" vertex="1" parent="1">
          <mxGeometry x="406" y="223" width="50" height="50" as="geometry" />
        </mxCell>
        <mxCell id="ReZrS3ay8omHcq3P7Lu7-42" value="" style="ellipse;whiteSpace=wrap;html=1;" vertex="1" parent="1">
          <mxGeometry x="680" y="84" width="30" height="30" as="geometry" />
        </mxCell>
        <mxCell id="ReZrS3ay8omHcq3P7Lu7-43" value="Standard Pullery" style="text;html=1;strokeColor=none;fillColor=none;align=center;verticalAlign=middle;whiteSpace=wrap;rounded=0;fontStyle=1" vertex="1" parent="1">
          <mxGeometry x="466" y="233" width="100" height="30" as="geometry" />
        </mxCell>
        <mxCell id="ReZrS3ay8omHcq3P7Lu7-44" value="Rope (pull from ground)" style="text;html=1;strokeColor=none;fillColor=none;align=center;verticalAlign=middle;whiteSpace=wrap;rounded=0;fontStyle=1" vertex="1" parent="1">
          <mxGeometry x="731" y="220" width="90" height="30" as="geometry" />
        </mxCell>
        <mxCell id="ReZrS3ay8omHcq3P7Lu7-45" value="Rope (pull from attic)" style="text;html=1;strokeColor=none;fillColor=none;align=center;verticalAlign=middle;whiteSpace=wrap;rounded=0;fontStyle=1" vertex="1" parent="1">
          <mxGeometry x="731" y="173" width="90" height="30" as="geometry" />
        </mxCell>
        <mxCell id="ReZrS3ay8omHcq3P7Lu7-46" value="Square beam" style="text;html=1;strokeColor=none;fillColor=none;align=center;verticalAlign=middle;whiteSpace=wrap;rounded=0;fontStyle=1" vertex="1" parent="1">
          <mxGeometry x="720" y="120" width="100" height="30" as="geometry" />
        </mxCell>
        <mxCell id="ReZrS3ay8omHcq3P7Lu7-47" value="Wheels" style="text;html=1;strokeColor=none;fillColor=none;align=center;verticalAlign=middle;whiteSpace=wrap;rounded=0;fontStyle=1" vertex="1" parent="1">
          <mxGeometry x="700" y="84" width="100" height="30" as="geometry" />
        </mxCell>
        <mxCell id="ReZrS3ay8omHcq3P7Lu7-48" value="" style="shape=link;html=1;rounded=0;strokeWidth=3;" edge="1" parent="1">
          <mxGeometry width="100" relative="1" as="geometry">
            <mxPoint x="693" y="40" as="sourcePoint" />
            <mxPoint x="693" y="70" as="targetPoint" />
          </mxGeometry>
        </mxCell>
        <mxCell id="ReZrS3ay8omHcq3P7Lu7-49" value="Stud/Wall" style="text;html=1;strokeColor=none;fillColor=none;align=center;verticalAlign=middle;whiteSpace=wrap;rounded=0;fontStyle=1" vertex="1" parent="1">
          <mxGeometry x="700" y="41" width="100" height="30" as="geometry" />
        </mxCell>
        <mxCell id="ReZrS3ay8omHcq3P7Lu7-50" value="" style="endArrow=none;html=1;rounded=0;strokeWidth=2;" edge="1" parent="1">
          <mxGeometry width="50" height="50" relative="1" as="geometry">
            <mxPoint x="670" y="220" as="sourcePoint" />
            <mxPoint x="669" y="10" as="targetPoint" />
          </mxGeometry>
        </mxCell>
        <mxCell id="ReZrS3ay8omHcq3P7Lu7-51" value="" style="endArrow=none;html=1;rounded=0;strokeWidth=2;" edge="1" parent="1">
          <mxGeometry width="50" height="50" relative="1" as="geometry">
            <mxPoint x="670" y="220" as="sourcePoint" />
            <mxPoint x="400" y="220" as="targetPoint" />
          </mxGeometry>
        </mxCell>
        <mxCell id="ReZrS3ay8omHcq3P7Lu7-52" value="" style="endArrow=none;html=1;rounded=0;strokeWidth=2;" edge="1" parent="1">
          <mxGeometry width="50" height="50" relative="1" as="geometry">
            <mxPoint x="840" y="420" as="sourcePoint" />
            <mxPoint x="840" y="10" as="targetPoint" />
          </mxGeometry>
        </mxCell>
        <mxCell id="ReZrS3ay8omHcq3P7Lu7-53" value="" style="endArrow=none;html=1;rounded=0;strokeWidth=2;" edge="1" parent="1">
          <mxGeometry width="50" height="50" relative="1" as="geometry">
            <mxPoint x="400" y="420" as="sourcePoint" />
            <mxPoint x="400" y="220" as="targetPoint" />
          </mxGeometry>
        </mxCell>
        <mxCell id="ReZrS3ay8omHcq3P7Lu7-54" value="" style="endArrow=none;html=1;rounded=0;strokeWidth=2;" edge="1" parent="1">
          <mxGeometry width="50" height="50" relative="1" as="geometry">
            <mxPoint x="840" y="420" as="sourcePoint" />
            <mxPoint x="400" y="420" as="targetPoint" />
          </mxGeometry>
        </mxCell>
        <mxCell id="ReZrS3ay8omHcq3P7Lu7-55" value="" style="endArrow=none;html=1;rounded=0;strokeWidth=2;" edge="1" parent="1">
          <mxGeometry width="50" height="50" relative="1" as="geometry">
            <mxPoint x="840" y="10" as="sourcePoint" />
            <mxPoint x="669" y="10" as="targetPoint" />
          </mxGeometry>
        </mxCell>
        <mxCell id="ReZrS3ay8omHcq3P7Lu7-56" value="LEGEND" style="text;html=1;strokeColor=none;fillColor=none;align=center;verticalAlign=middle;whiteSpace=wrap;rounded=0;fontStyle=5" vertex="1" parent="1">
          <mxGeometry x="700" y="11" width="100" height="30" as="geometry" />
        </mxCell>
        <mxCell id="ReZrS3ay8omHcq3P7Lu7-57" value="" style="shape=flexArrow;endArrow=classic;startArrow=classic;html=1;rounded=0;" edge="1" parent="1">
          <mxGeometry width="100" height="100" relative="1" as="geometry">
            <mxPoint x="190" y="240" as="sourcePoint" />
            <mxPoint x="300" y="240" as="targetPoint" />
          </mxGeometry>
        </mxCell>
        <mxCell id="ReZrS3ay8omHcq3P7Lu7-58" value="B1" style="text;html=1;strokeColor=none;fillColor=none;align=center;verticalAlign=middle;whiteSpace=wrap;rounded=0;fontStyle=1" vertex="1" parent="1">
          <mxGeometry x="200" y="243" width="100" height="30" as="geometry" />
        </mxCell>
        <mxCell id="ReZrS3ay8omHcq3P7Lu7-59" value="" style="shape=flexArrow;endArrow=classic;startArrow=classic;html=1;rounded=0;" edge="1" parent="1">
          <mxGeometry width="100" height="100" relative="1" as="geometry">
            <mxPoint x="336" y="213" as="sourcePoint" />
            <mxPoint x="336" y="283" as="targetPoint" />
          </mxGeometry>
        </mxCell>
        <mxCell id="ReZrS3ay8omHcq3P7Lu7-60" value="R1" style="text;html=1;strokeColor=none;fillColor=none;align=center;verticalAlign=middle;whiteSpace=wrap;rounded=0;fontStyle=1" vertex="1" parent="1">
          <mxGeometry x="290" y="280" width="100" height="30" as="geometry" />
        </mxCell>
        <mxCell id="ReZrS3ay8omHcq3P7Lu7-61" value="" style="shape=flexArrow;endArrow=classic;startArrow=classic;html=1;rounded=0;" edge="1" parent="1">
          <mxGeometry width="100" height="100" relative="1" as="geometry">
            <mxPoint x="346" y="202" as="sourcePoint" />
            <mxPoint x="420" y="202" as="targetPoint" />
          </mxGeometry>
        </mxCell>
        <mxCell id="ReZrS3ay8omHcq3P7Lu7-62" value="R2" style="text;html=1;strokeColor=none;fillColor=none;align=center;verticalAlign=middle;whiteSpace=wrap;rounded=0;fontStyle=1" vertex="1" parent="1">
          <mxGeometry x="381" y="183" width="100" height="30" as="geometry" />
        </mxCell>
        <mxCell id="ReZrS3ay8omHcq3P7Lu7-63" value="" style="shape=flexArrow;endArrow=classic;startArrow=classic;html=1;rounded=0;" edge="1" parent="1">
          <mxGeometry width="100" height="100" relative="1" as="geometry">
            <mxPoint x="40" y="350" as="sourcePoint" />
            <mxPoint x="40" y="420" as="targetPoint" />
          </mxGeometry>
        </mxCell>
        <mxCell id="ReZrS3ay8omHcq3P7Lu7-64" value="R3" style="text;html=1;strokeColor=none;fillColor=none;align=center;verticalAlign=middle;whiteSpace=wrap;rounded=0;fontStyle=1" vertex="1" parent="1">
          <mxGeometry y="410" width="100" height="30" as="geometry" />
        </mxCell>
        <mxCell id="ReZrS3ay8omHcq3P7Lu7-65" value="BEAM1" style="text;html=1;strokeColor=none;fillColor=none;align=center;verticalAlign=middle;whiteSpace=wrap;rounded=0;fontStyle=1" vertex="1" parent="1">
          <mxGeometry x="79" y="139" width="100" height="30" as="geometry" />
        </mxCell>
        <mxCell id="ReZrS3ay8omHcq3P7Lu7-66" value="BEAM2" style="text;html=1;strokeColor=none;fillColor=none;align=center;verticalAlign=middle;whiteSpace=wrap;rounded=0;fontStyle=1" vertex="1" parent="1">
          <mxGeometry x="540" y="84" width="100" height="30" as="geometry" />
        </mxCell>
        <mxCell id="ReZrS3ay8omHcq3P7Lu7-67" value="R1" style="text;html=1;strokeColor=none;fillColor=none;align=center;verticalAlign=middle;whiteSpace=wrap;rounded=0;fontStyle=1" vertex="1" parent="1">
          <mxGeometry x="374" y="290" width="100" height="30" as="geometry" />
        </mxCell>
        <mxCell id="ReZrS3ay8omHcq3P7Lu7-68" value="R2" style="text;html=1;strokeColor=none;fillColor=none;align=center;verticalAlign=middle;whiteSpace=wrap;rounded=0;fontStyle=1" vertex="1" parent="1">
          <mxGeometry x="374" y="333" width="100" height="30" as="geometry" />
        </mxCell>
        <mxCell id="ReZrS3ay8omHcq3P7Lu7-69" value="R3" style="text;html=1;strokeColor=none;fillColor=none;align=center;verticalAlign=middle;whiteSpace=wrap;rounded=0;fontStyle=1" vertex="1" parent="1">
          <mxGeometry x="374" y="370" width="100" height="30" as="geometry" />
        </mxCell>
        <mxCell id="ReZrS3ay8omHcq3P7Lu7-70" value="Pull or slack on Attic Rope1, will cause Beam1 to move laterally. B1" style="text;html=1;strokeColor=none;fillColor=none;align=left;verticalAlign=middle;whiteSpace=wrap;rounded=0;fontStyle=3" vertex="1" parent="1">
          <mxGeometry x="440" y="290" width="390" height="30" as="geometry" />
        </mxCell>
        <mxCell id="ReZrS3ay8omHcq3P7Lu7-71" value="Attic Rope 2 is a guide in case of retracting Beam1 back" style="text;html=1;strokeColor=none;fillColor=none;align=left;verticalAlign=middle;whiteSpace=wrap;rounded=0;fontStyle=3" vertex="1" parent="1">
          <mxGeometry x="440" y="333" width="390" height="30" as="geometry" />
        </mxCell>
        <mxCell id="ReZrS3ay8omHcq3P7Lu7-72" value="Pull or slack on ground Rope3 will cause the weight W to be lifted or lowered" style="text;html=1;strokeColor=none;fillColor=none;align=left;verticalAlign=middle;whiteSpace=wrap;rounded=0;fontStyle=3" vertex="1" parent="1">
          <mxGeometry x="440" y="370" width="390" height="30" as="geometry" />
        </mxCell>
        <mxCell id="ReZrS3ay8omHcq3P7Lu7-73" value="W" style="shape=trapezoid;perimeter=trapezoidPerimeter;whiteSpace=wrap;html=1;fixedSize=1;labelBackgroundColor=#000000;fontColor=#FFFFFF;fontStyle=1;fillColor=#000000;" vertex="1" parent="1">
          <mxGeometry x="60" y="410" width="120" height="60" as="geometry" />
        </mxCell>
      </root>
    </mxGraphModel>
  </diagram>
</mxfile>
